<svg viewBox="0 0 200 200" xmlns="http://www.w3.org/2000/svg">
  
  <!-- Main document/notes shape -->
  <path d="M 35 5 
           h 130 a 10 10 0 0 1 10 10
           v 170 a 10 10 0 0 1 -10 10 
           h -130 a 10 10 0 0 1 -10 -10
           v -170 a 10 10 0 0 1 10 -10 z" 
        fill="#2563eb"/>
  
  <!-- Document lines representing notes -->
  <line x1="60" y1="40" x2="140" y2="40" stroke="#ffffff" stroke-width="6" stroke-linecap="round" opacity="0.5"/>
  <line x1="50" y1="80" x2="150" y2="80" stroke="#ffffff" stroke-width="6" stroke-linecap="round" opacity="0.5"/>
  <line x1="50" y1="120" x2="150" y2="120" stroke="#ffffff" stroke-width="6" stroke-linecap="round" opacity="0.5"/>
  <line x1="60" y1="160" x2="140" y2="160" stroke="#ffffff" stroke-width="6" stroke-linecap="round" opacity="0.5"/>
  
  <!-- AI/Neural network nodes overlay - expanded network -->
  <g>
    <!-- Input layer -->
    <circle cx="100" cy="40" r="10" fill="#ffffff"/>
    
    <!-- Hidden layer 1 -->
    <circle cx="80" cy="80" r="10" fill="#ffffff"/>
    <circle cx="120" cy="80" r="10" fill="#ffffff"/>
    <!-- <circle cx="170" cy="80" r="10" fill="#ffffff"/> -->
    
    <!-- Hidden layer 2 -->
    <circle cx="60" cy="120" r="10" fill="#ffffff"/>
    <circle cx="100" cy="120" r="10" fill="#ffffff"/>
    <circle cx="140" cy="120" r="10" fill="#ffffff"/>
    
    <!-- Output layer -->
    <circle cx="100" cy="160" r="10" fill="#ffffff"/>
    
    <!-- Connections - Input to Layer 1 -->
    <line x1="100" y1="40" x2="80" y2="80" stroke="#ffffff" stroke-width="3"/>
    <line x1="100" y1="40" x2="120" y2="80" stroke="#ffffff" stroke-width="3"/>

    <!-- Connections - Layer 1 to Layer 2 -->
    <line x1="80" y1="80" x2="60" y2="120" stroke="#ffffff" stroke-width="3"/>
    <line x1="80" y1="80" x2="100" y2="120" stroke="#ffffff" stroke-width="3"/>
    <line x1="80" y1="80" x2="140" y2="120" stroke="#ffffff" stroke-width="3"/>

    <!-- Connections - Layer 2 to Layer 3 -->
    <line x1="120" y1="80" x2="60" y2="120" stroke="#ffffff" stroke-width="3"/>
    <line x1="120" y1="80" x2="100" y2="120" stroke="#ffffff" stroke-width="3"/>
    <line x1="120" y1="80" x2="140" y2="120" stroke="#ffffff" stroke-width="3"/>

    <!-- Connections - Layer 3 to Output -->
    <line x1="60" y1="120" x2="100" y2="160" stroke="#ffffff" stroke-width="3"/>
    <line x1="100" y1="120" x2="100" y2="160" stroke="#ffffff" stroke-width="3"/>
    <line x1="140" y1="120" x2="100" y2="160" stroke="#ffffff" stroke-width="3"/>
  </g>
</svg>